
<svg width="200" height="200" viewBox="0 0 200 200" fill="none" xmlns="http://www.w3.org/2000/svg">
<rect width="200" height="200" rx="46" fill="#F2A88E"/>
<path d="M78.168 45.9212C87.1629 28.9437 111.776 29.825 119.534 47.4023L125.026 59.8462C127.288 64.9731 131.345 69.0974 136.434 71.4447L147.309 76.4612C166.113 85.1352 164.774 112.296 145.207 119.078L139.081 121.201C132.423 123.509 127.19 128.742 124.882 135.4L120.923 146.82C114.218 166.163 87.4831 167.765 78.5158 149.361L70.706 133.334C68.0591 127.901 63.3806 123.729 57.6819 121.719L51.9969 119.713C33.3302 113.127 31.1485 87.6048 48.4267 77.9467L60.651 71.1136C64.518 68.9521 67.6785 65.7197 69.7526 61.805L78.168 45.9212Z" fill="#FF4200"/>
<path d="M99.5 33.5L99.6852 31.5086L99.5 33.5ZM68 94L66.011 94.2094L68 94ZM126 94L124.452 95.2665L126 94ZM127 129.5L128.925 130.042L127 129.5ZM71.344 127.226C70.9162 126.207 69.7439 125.728 68.7255 126.156C67.7071 126.584 67.2283 127.756 67.656 128.774L71.344 127.226ZM126.919 63.4375C125.467 58.4838 122.605 50.9824 118.223 44.5047C113.877 38.0797 107.754 32.2591 99.6852 31.5086L99.3148 35.4914C105.59 36.0752 110.8 40.6712 114.91 46.746C118.984 52.7681 121.699 59.8495 123.081 64.5625L126.919 63.4375ZM99.6852 31.5086C87.6513 30.3892 78.4362 39.3918 72.7531 51.4604C67.0224 63.6302 64.4759 79.6261 66.011 94.2094L69.989 93.7906C68.5241 79.8739 70.9776 64.6198 76.3719 53.1646C81.8138 41.6082 89.8487 34.6108 99.3148 35.4914L99.6852 31.5086ZM66.011 94.2094C66.3076 97.027 67.262 99.2901 69.2458 100.552C71.1647 101.773 73.5037 101.697 75.6936 101.22C77.9283 100.734 80.4437 99.733 83.0533 98.566C85.6396 97.4094 88.5746 95.9689 91.4522 94.6406C97.3681 91.9097 103.531 89.4213 109.31 88.965C114.944 88.5201 120.146 90.0031 124.452 95.2665L127.548 92.7335C122.272 86.2848 115.699 84.448 108.995 84.9774C102.436 85.4954 95.6972 88.2754 89.7757 91.0089C86.7346 92.4127 84.0171 93.7533 81.4204 94.9145C78.8469 96.0653 76.6489 96.9188 74.8433 97.3116C72.9928 97.7141 71.9646 97.541 71.3929 97.1773C70.886 96.8548 70.2264 96.0455 69.989 93.7906L66.011 94.2094ZM124.452 95.2665C126.309 97.536 127.695 101.695 127.966 107.587C128.235 113.416 127.398 120.7 125.075 128.959L128.925 130.042C131.341 121.454 132.254 113.738 131.962 107.403C131.674 101.132 130.191 95.964 127.548 92.7335L124.452 95.2665ZM125.075 128.959C122.837 136.917 120.155 144.409 116.341 150.07C112.565 155.675 107.787 159.339 101.294 160.011L101.706 163.989C109.713 163.161 115.435 158.575 119.659 152.305C123.845 146.091 126.664 138.083 128.925 130.042L125.075 128.959ZM101.294 160.011C97.9326 160.358 95.1153 160.002 92.6135 158.984C90.1063 157.963 87.7876 156.225 85.5041 153.619C80.8721 148.334 76.605 139.752 71.344 127.226L67.656 128.774C72.895 141.248 77.3779 150.416 82.4959 156.256C85.0874 159.213 87.8937 161.381 91.1053 162.688C94.3222 163.998 97.8174 164.392 101.706 163.989L101.294 160.011Z" fill="#972F19"/>
<circle cx="125" cy="64" r="2" fill="#972F19"/>
</svg>
